<svg preserveAspectRatio="none" overflow="visible" style="display: block;" width="207.802" height="76.1631" viewBox="0 0 207.802 76.1631" fill="none" xmlns="http://www.w3.org/2000/svg">
<g id="Decoration &#194;&#183; group">
<path id="Shape" d="M168.023 76.1511C162.16 76.0601 156.887 74.5155 152.346 71.5601C151.767 71.183 151.203 70.7818 150.656 70.3619C150.067 71.0653 149.411 71.7273 148.704 72.3291C145.871 74.7416 142.396 75.9638 138.375 75.9638H138.333C134.884 75.9558 131.795 75.0251 129.149 73.1956C127.476 72.0402 126.098 70.6401 125.026 69.0112L124.326 69.8791C121.354 73.6196 116.691 75.9211 111.851 76.0361C111.722 76.0387 111.595 76.0401 111.467 76.0401C109.207 76.0401 107.037 75.5747 105.021 74.6586C103.509 73.9713 102.107 73.0151 100.882 71.8436C98.1093 74.228 94.6678 75.4369 90.648 75.4369H90.6325C87.6928 75.4249 85.0047 74.6854 82.6447 73.2371C82.4736 73.1328 82.305 73.0245 82.1377 72.9148C81.9121 73.0673 81.6826 73.217 81.4492 73.3628C78.4914 75.215 74.9708 76.1537 70.9821 76.1537H70.8823C67.0518 76.1377 63.5053 75.1775 60.3335 73.2986C58.4222 72.1673 56.7274 70.7297 55.2763 69.0152C55.2763 69.0152 55.0196 69.3335 55.0053 69.3522C54.9794 69.3843 54.947 69.4258 54.9146 69.4659L54.8912 69.494C54.3168 70.2268 53.6658 70.9209 52.9565 71.5601C50.188 74.0515 46.7427 75.3674 42.7164 75.4704C42.5556 75.4744 42.3974 75.4771 42.2392 75.4771C38.9974 75.4771 36.0591 74.6332 33.5033 72.9696C31.8422 71.8891 30.456 70.5652 29.3551 69.0139C29.346 69.0246 28.9946 69.4606 28.9946 69.4606L28.3008 70.3204C27.8016 70.953 27.2388 71.5655 26.6333 72.1338C23.9102 74.6907 20.4272 76.0414 16.2803 76.147C16.1312 76.1511 15.9769 76.1537 15.8213 76.1537C12.6353 76.1537 9.72286 75.3086 7.16444 73.6436C4.42449 71.861 2.41329 69.4164 1.1879 66.3794C0.0065965 63.4454 -0.296834 60.2546 0.291873 56.8993L6.76246 21.0344L6.76895 21.0036C7.33042 18.2969 8.4443 15.8898 10.082 13.8477L10.2428 13.6485L10.6746 13.1122L11.1531 12.5184L11.5318 12.049L12.2787 11.1223L12.3889 10.9846L12.9763 10.2557L13.5663 9.52423L13.6221 9.45469L14.2639 8.659L14.4247 8.45974L14.6374 8.19496L14.6919 8.12809L15.2274 7.46212L15.4401 7.19734C15.6955 6.87505 15.9704 6.55543 16.2557 6.24652C16.2661 6.23582 16.2764 6.22378 16.2868 6.21308C16.4022 6.09005 16.5202 5.96702 16.6719 5.81457C16.7005 5.78381 16.7238 5.75974 16.7484 5.73701C16.8807 5.60595 17.0117 5.48158 17.1439 5.35855C17.1725 5.33047 17.201 5.30372 17.2308 5.27564C18.3214 4.27267 19.5545 3.44354 20.894 2.81234C22.4112 2.09688 24.0813 1.63284 25.8565 1.43225C26.4012 1.37073 26.9458 1.33329 27.4761 1.31858C27.6188 1.31456 27.7601 1.31323 27.9028 1.31323C29.2241 1.31323 30.5429 1.47504 31.8214 1.79198C32.0211 1.84146 32.2195 1.89495 32.4088 1.94978C32.5657 1.99525 32.7213 2.04205 32.8769 2.09287C32.8769 2.09287 32.9573 2.11828 32.991 2.12898C33.7328 2.3737 34.4706 2.67593 35.1825 3.02898C35.4963 3.18411 35.8088 3.35394 36.1161 3.53314C36.3405 3.37935 36.5687 3.22824 36.7995 3.08113L36.8228 3.06509C36.8553 3.04369 36.889 3.02229 36.9227 3.0009C37.5127 2.6318 38.1351 2.28812 38.7744 1.98054C41.3276 0.747549 44.148 0.0829124 47.1615 0.00668649C47.334 0.00267459 47.5025 0.0013373 47.6698 0C47.6984 0 47.7256 0 47.7515 0C50.0441 0 52.2252 0.347697 54.2351 1.03239C56.5964 1.83745 58.7502 3.1159 60.6382 4.83299C60.8289 5.00684 61.0221 5.18871 61.2256 5.38931C61.2697 5.4321 61.3125 5.47623 61.3553 5.51903L61.4046 5.56851C61.5343 5.69956 61.6639 5.83062 61.791 5.96435C61.8468 6.02453 61.9025 6.0847 61.9583 6.14488L61.9998 6.19035C62.1126 6.31338 62.2254 6.43775 62.3356 6.56346C62.407 6.64503 62.477 6.72661 62.547 6.80952C62.6533 6.93389 62.7584 7.05959 62.8621 7.18664C62.9295 7.26955 62.9983 7.3538 63.0657 7.43939C63.1694 7.57044 63.2719 7.70417 63.3717 7.8379L63.408 7.88604C63.4586 7.95291 63.5092 8.01977 63.5584 8.08664C63.6661 8.23374 63.7711 8.38218 63.8748 8.53196L63.9163 8.5908C63.9539 8.64429 63.9915 8.69778 64.0278 8.75127C64.177 8.97193 64.3209 9.19124 64.4532 9.40254L64.4726 9.43196C64.6101 9.65261 64.7475 9.88129 64.8927 10.1327C64.9252 10.1875 64.9563 10.245 64.9874 10.3025L65.0237 10.3681C65.1145 10.5285 65.204 10.6904 65.2908 10.8535C65.3297 10.9271 65.3673 11.0006 65.4062 11.0742C65.4062 11.0742 65.4711 11.1999 65.4866 11.232L65.5255 11.1838L65.7408 10.9164L65.7953 10.8495L65.9548 10.6516L66.0611 10.5192L66.2219 10.3199L66.4358 10.0551L66.4916 9.9856L67.1283 9.19526L67.1775 9.12438L67.2424 9.0535C67.2865 9.00001 67.4901 8.75662 67.4901 8.75662C67.5549 8.6804 67.6184 8.60685 67.6833 8.53329C67.7222 8.48783 67.7637 8.44236 67.8039 8.39689C67.8674 8.32601 67.9309 8.25514 67.9958 8.18426C68.0282 8.14949 68.1423 8.0278 68.1423 8.0278C68.202 7.96361 68.2616 7.90075 68.3225 7.83656C68.3498 7.80848 68.438 7.71754 68.438 7.71754C68.5611 7.59184 68.6856 7.46747 68.8114 7.34444L68.8386 7.31769C68.8827 7.2749 68.9255 7.2321 68.9696 7.19065C69.0241 7.13849 69.0798 7.08634 69.1356 7.03552L69.155 7.0168C69.2134 6.96197 69.2717 6.90848 69.3301 6.85499C69.391 6.80016 69.4507 6.74533 69.5129 6.6905C69.5778 6.633 69.6413 6.57683 69.7074 6.52066L69.7165 6.51264C69.7723 6.4645 69.828 6.41502 69.8851 6.36687C69.959 6.30402 70.0368 6.23849 70.1146 6.1743C70.1146 6.1743 70.2261 6.08069 70.2611 6.05261C70.3817 5.95365 70.5075 5.85469 70.6333 5.75573C70.6657 5.73032 70.7707 5.65008 70.7707 5.65008C70.8589 5.58322 70.9458 5.51501 71.0353 5.44949C71.0807 5.41605 71.1948 5.33181 71.1948 5.33181C71.2803 5.26895 71.3659 5.20744 71.4528 5.14458C71.506 5.1058 71.5591 5.06836 71.6123 5.03091C71.7057 4.96539 71.8003 4.89986 71.895 4.83567L72.035 4.74072C72.1699 4.64978 72.306 4.56018 72.4435 4.47059L72.6341 4.35157L72.6639 4.33418C75.0732 2.92734 77.7704 1.83611 80.6802 1.08856C83.4889 0.366419 86.4843 0.0013373 89.5834 0.0013373H89.8091C94.3203 0.0280832 98.4516 0.917386 102.089 2.64517C103.366 3.25231 104.597 3.9691 105.743 4.77549L105.787 4.80625L105.798 4.81427C106.008 4.96271 106.231 5.12586 106.477 5.31308L106.643 5.43879C106.852 5.59926 107.059 5.76242 107.26 5.9269C107.355 6.00447 107.451 6.0847 107.548 6.16494C107.651 6.25187 107.749 6.33612 107.848 6.42037C108.796 7.23612 109.681 8.1174 110.497 9.05484C110.497 9.0535 110.499 9.05217 110.501 9.05083L110.498 9.05484C110.516 9.03211 110.643 8.87431 110.663 8.85023L110.655 8.8596C110.674 8.83419 110.695 8.80878 110.716 8.78471L110.711 8.79139C110.73 8.76732 110.75 8.74325 110.769 8.71918L110.764 8.72587C110.783 8.70046 110.803 8.67639 110.822 8.65231C110.84 8.62958 110.909 8.54533 110.929 8.52126C110.944 8.50254 110.965 8.47713 110.986 8.45172H110.984C111.001 8.43166 111.126 8.27787 111.146 8.25246L111.144 8.25514C111.162 8.2324 111.18 8.20967 111.198 8.18693L111.196 8.19095C111.214 8.16821 111.286 8.07861 111.306 8.05454L111.303 8.05722C111.319 8.03716 111.394 7.94488 111.414 7.91948L111.41 7.92482C111.428 7.90075 111.5 7.81115 111.521 7.78708L111.519 7.79109C111.537 7.76702 111.556 7.74429 111.576 7.72156H111.574C111.593 7.70016 111.611 7.67742 111.629 7.65603L111.621 7.66539C111.64 7.63998 111.661 7.61457 111.682 7.58916L111.679 7.59318C111.698 7.57044 111.822 7.41531 111.841 7.39124L111.836 7.39793C111.852 7.37787 111.873 7.35246 111.893 7.32572L111.887 7.33508C111.908 7.30833 111.928 7.28292 111.95 7.25618C111.967 7.23478 112.037 7.14786 112.055 7.12512L112.052 7.13047C112.071 7.1064 112.09 7.08099 112.111 7.05692C112.128 7.03686 112.146 7.01413 112.164 6.99273C112.301 6.81754 112.45 6.63567 112.618 6.43641C112.657 6.39094 112.696 6.34681 112.735 6.30268L112.771 6.26123C112.885 6.13151 113.001 6.00179 113.119 5.87475C113.178 5.81056 113.239 5.7477 113.299 5.68351C113.42 5.55915 113.541 5.43611 113.666 5.31442L113.704 5.27698C113.746 5.23418 113.789 5.19273 113.833 5.15127C114.02 4.97475 114.192 4.81695 114.361 4.66851L114.386 4.64711C115.87 3.35394 117.577 2.38574 119.457 1.76924C121.09 1.23433 122.862 0.962854 124.724 0.962854C125.779 0.965529 126.826 1.06583 127.843 1.26107C129.439 1.56865 130.991 2.11828 132.455 2.89391C132.77 3.06107 133.083 3.24295 133.39 3.43552C133.685 3.24428 133.959 3.07311 134.229 2.91531C137.293 1.11397 140.758 0.200595 144.528 0.200595C145.17 0.201932 145.806 0.230015 146.425 0.28217C146.504 0.288856 146.58 0.29688 146.657 0.303567L146.698 0.307578C146.982 0.335662 147.262 0.367757 147.533 0.405201C148.423 0.526895 149.294 0.706093 150.124 0.934771L150.181 0.950818C150.395 1.011 150.605 1.07385 150.832 1.14606C151.099 1.23165 151.368 1.32392 151.631 1.42155C151.899 1.52051 152.169 1.62749 152.43 1.73849C154.467 2.60372 156.333 3.84206 157.975 5.41873C158.138 5.57653 158.304 5.74102 158.496 5.94028C158.563 6.00981 158.633 6.08337 158.705 6.15825L158.714 6.16895C158.793 6.2532 158.865 6.3321 158.939 6.41234C159.108 6.59555 159.273 6.78277 159.436 6.97401C159.883 6.61427 160.342 6.26791 160.813 5.93493C162.424 4.79421 164.185 3.79792 166.048 2.97415C166.637 2.71338 167.273 2.45929 167.939 2.21724C170.848 1.16479 174.038 0.532244 177.42 0.335662C178.212 0.290194 178.998 0.266122 179.754 0.266122L180.391 0.271471C186.354 0.362408 191.659 1.94443 196.159 4.97341C200.789 8.09199 204.132 12.3513 206.097 17.6349C206.444 18.5737 206.744 19.5459 206.986 20.5248C208.077 24.9259 208.073 29.6519 206.976 34.5731L204.306 46.5206C203.393 50.9644 201.503 55.0044 198.689 58.5282C198.678 58.5415 197.395 60.1343 197.395 60.1343L197.366 60.169L197.181 60.4004C197.17 60.4137 197.016 60.605 197.016 60.605L196.991 60.6357C196.991 60.6357 196.177 61.6467 196.172 61.6534C196.155 61.6735 195.199 62.861 195.199 62.861C195.189 62.8744 194.712 63.4668 194.712 63.4668L194.687 63.4976L194.448 63.7944C194.438 63.8078 193.464 65.0154 193.453 65.0288L193.438 65.0461C193.424 65.0635 193.283 65.2387 193.278 65.2454C190.459 68.7692 186.798 71.5334 182.393 73.4658C178.302 75.2564 173.682 76.1631 168.658 76.1631L168.022 76.1577L168.023 76.1511Z" fill="white"/>
<path id="Shape_2" d="M203.907 18.4893C202.121 13.6884 199.082 9.81692 194.872 6.98051C190.748 4.20428 185.862 2.75465 180.345 2.6704L179.744 2.66639C175.021 2.66639 170.719 3.51156 166.957 5.17917C164.212 6.39344 161.752 7.98349 159.647 9.90518C159.457 10.079 159.28 10.2703 159.095 10.4495C158.301 9.25793 157.399 8.16135 156.373 7.17442C153.223 4.15079 149.252 2.6129 144.515 2.60087C141.156 2.60087 138.08 3.40726 135.373 4.99998C134.66 5.41989 133.993 5.86788 133.377 6.34129C132.77 5.85317 132.101 5.41588 131.375 5.0294C129.3 3.93014 127.07 3.36981 124.711 3.36446C121.224 3.36446 118.252 4.4129 115.879 6.48036C115.164 7.10221 114.523 7.77888 113.958 8.50904C113.939 8.53178 113.921 8.55318 113.904 8.57591C113.886 8.59864 113.868 8.62004 113.851 8.64277C113.833 8.66551 113.815 8.6869 113.798 8.70964C113.78 8.73237 113.762 8.75377 113.745 8.7765C113.727 8.79924 113.709 8.82063 113.692 8.84337C113.674 8.8661 113.656 8.8875 113.639 8.91023C113.62 8.93297 113.602 8.95436 113.585 8.9771C113.567 8.99983 113.549 9.02123 113.532 9.04396C113.514 9.0667 113.496 9.08809 113.479 9.11083C113.461 9.13356 113.443 9.15496 113.426 9.17769C113.408 9.20043 113.39 9.22182 113.373 9.24456C113.355 9.26729 113.337 9.28869 113.32 9.31142C113.302 9.33416 113.283 9.35555 113.266 9.37829C113.248 9.40102 113.23 9.42242 113.213 9.44515C113.195 9.46789 113.177 9.48928 113.16 9.51202C113.142 9.53475 113.124 9.55615 113.107 9.57888C113.089 9.60162 113.071 9.62301 113.054 9.64575C113.036 9.66848 113.018 9.68988 113.001 9.71261C112.983 9.73535 112.964 9.75674 112.948 9.77948C112.929 9.80221 112.911 9.82361 112.894 9.84634C112.876 9.86908 112.858 9.89047 112.841 9.91321C112.823 9.93594 112.805 9.95734 112.788 9.98007C112.77 10.0028 112.752 10.0242 112.735 10.0469C112.717 10.0697 112.699 10.0911 112.682 10.1138C112.664 10.1365 112.645 10.1579 112.629 10.1807C112.61 10.2034 112.592 10.2248 112.575 10.2475C112.557 10.2703 112.539 10.2917 112.522 10.3144C112.504 10.3371 112.486 10.3585 112.469 10.3813C112.451 10.404 112.433 10.4254 112.416 10.4481C112.398 10.4709 112.38 10.4923 112.363 10.515C112.345 10.5377 112.326 10.5591 112.31 10.5819C112.291 10.6046 112.273 10.626 112.256 10.6487C112.238 10.6715 112.22 10.6929 112.203 10.7156C112.185 10.7383 112.167 10.7597 112.15 10.7824C112.132 10.8052 112.114 10.8266 112.097 10.8493C112.079 10.872 112.061 10.8934 112.044 10.9162C112.026 10.9389 112.007 10.9603 111.991 10.983C111.972 11.0058 111.954 11.0272 111.937 11.0499C111.919 11.0726 111.901 11.094 111.884 11.1168C111.866 11.1395 111.848 11.1609 111.831 11.1836C111.813 11.2064 111.795 11.2278 111.778 11.2505C111.76 11.2732 111.742 11.2946 111.725 11.3174C111.707 11.3401 111.688 11.3615 111.672 11.3842C111.653 11.407 111.635 11.4284 111.618 11.4511C111.6 11.4738 111.582 11.4952 111.565 11.518C111.547 11.5407 111.529 11.5621 111.512 11.5848C111.494 11.6076 111.476 11.629 111.459 11.6517C111.441 11.6744 111.423 11.6958 111.406 11.7186C111.388 11.7413 111.369 11.7627 111.353 11.7854C111.334 11.8082 111.316 11.8296 111.299 11.8523C111.281 11.875 111.263 11.8964 111.246 11.9192C111.228 11.9419 111.21 11.9633 111.193 11.986C111.175 12.0088 111.157 12.0301 111.14 12.0529C111.122 12.0756 111.104 12.097 111.087 12.1197C111.069 12.1425 111.05 12.1639 111.034 12.1866C111.015 12.2093 110.997 12.2307 110.98 12.2535C110.962 12.2762 110.944 12.2976 110.927 12.3203C110.909 12.3431 110.891 12.3645 110.874 12.3872C110.856 12.4099 110.838 12.4313 110.821 12.4541C110.803 12.4768 110.785 12.4982 110.768 12.5209C110.75 12.5437 110.731 12.5651 110.715 12.5878C110.696 12.6105 110.678 12.6319 110.661 12.6547C110.643 12.6774 110.625 12.6988 110.608 12.7215C110.59 12.7443 110.572 12.7657 110.555 12.7884C110.537 12.8111 110.519 12.8325 110.502 12.8553C110.49 12.87 110.477 12.8847 110.466 12.8994C108.868 10.5364 106.863 8.48765 104.453 6.79062C100.376 3.92078 95.4328 2.45376 89.7636 2.42969H89.6145C86.6995 2.42835 83.8895 2.76936 81.2611 3.44604C78.5574 4.14009 76.0794 5.13906 73.8309 6.45094L73.7142 6.52316C71.8417 7.7294 70.2598 9.12688 68.9942 10.6888C68.976 10.7116 68.9579 10.733 68.941 10.7557C68.9228 10.7784 68.9047 10.7998 68.8878 10.8226C68.8697 10.844 68.8528 10.8667 68.8347 10.8894C68.8165 10.9122 68.7984 10.9336 68.7815 10.9563C68.7633 10.979 68.7452 11.0004 68.7283 11.0232C68.7102 11.0446 68.6933 11.0673 68.6752 11.09C68.657 11.1128 68.6389 11.1342 68.622 11.1569C68.6039 11.1796 68.5857 11.201 68.5688 11.2238C68.5507 11.2452 68.5338 11.2679 68.5157 11.2906C68.4975 11.3134 68.4794 11.3348 68.4625 11.3575C68.4444 11.3802 68.4262 11.4016 68.4093 11.4244C68.3912 11.4457 68.3743 11.4685 68.3562 11.4912C68.338 11.514 68.3199 11.5353 68.303 11.5581C68.2849 11.5808 68.2667 11.6022 68.2499 11.6249C68.2317 11.6463 68.2148 11.6691 68.1967 11.6918C68.1785 11.7145 68.1604 11.7359 68.1435 11.7587C68.1254 11.7814 68.1072 11.8028 68.0904 11.8255C68.0722 11.8483 68.054 11.8697 68.0372 11.8924C68.019 11.9138 68.0022 11.9365 67.984 11.9593C67.9659 11.982 67.9477 12.0034 67.9309 12.0261C67.9127 12.0489 67.8946 12.0703 67.8777 12.093C67.8595 12.1144 67.8427 12.1371 67.8245 12.1599C67.8064 12.1826 67.7882 12.204 67.7714 12.2267C67.7532 12.2495 67.7351 12.2709 67.7182 12.2936C67.7 12.315 67.6832 12.3377 67.665 12.3605C67.6469 12.3832 67.6287 12.4046 67.6119 12.4273C67.5937 12.4501 67.5756 12.4715 67.5587 12.4942C67.5405 12.5156 67.5237 12.5383 67.5055 12.5611C67.4874 12.5838 67.4692 12.6052 67.4524 12.6279C67.4342 12.6507 67.4161 12.6721 67.3992 12.6948C67.3811 12.7162 67.3629 12.7389 67.346 12.7617C67.3279 12.7844 67.3097 12.8058 67.2929 12.8285C67.2747 12.8512 67.2566 12.8726 67.2397 12.8954C67.2216 12.9168 67.2047 12.9395 67.1865 12.9622C67.1684 12.985 67.1502 13.0064 67.1334 13.0291C67.1152 13.0518 67.0971 13.0732 67.0802 13.096C67.0621 13.1187 67.0439 13.1401 67.0271 13.1628C67.0089 13.1842 66.992 13.207 66.9739 13.2297C66.9557 13.2524 66.9376 13.2738 66.9207 13.2966C66.9026 13.3193 66.8844 13.3407 66.8676 13.3634C66.8494 13.3848 66.8325 13.4076 66.8144 13.4303C66.7962 13.453 66.7781 13.4744 66.7612 13.4972C66.7431 13.5199 66.7249 13.5413 66.7081 13.564C66.6899 13.5854 66.6731 13.6082 66.6549 13.6309C66.6367 13.6536 66.6186 13.675 66.6017 13.6978C66.5836 13.7205 66.5654 13.7419 66.5486 13.7646C66.5304 13.786 66.5136 13.8088 66.4954 13.8315C66.4772 13.8542 66.4591 13.8756 66.4422 13.8984C66.4241 13.9211 66.4059 13.9425 66.3891 13.9652C66.3709 13.9866 66.3541 14.0093 66.3359 14.0321C66.3177 14.0548 66.2996 14.0762 66.2827 14.0989C66.2646 14.1217 66.2464 14.1431 66.2296 14.1658C66.2114 14.1872 66.1946 14.2099 66.1764 14.2327C66.1583 14.2554 66.1401 14.2768 66.1232 14.2995C66.1051 14.3223 66.0869 14.3437 66.0701 14.3664C66.0519 14.3891 66.0338 14.4105 66.0169 14.4333C65.9988 14.4547 65.9819 14.4774 65.9637 14.5001C65.9456 14.5229 65.9274 14.5443 65.9106 14.567C65.8924 14.5897 65.8743 14.6111 65.8574 14.6339C65.8393 14.6553 65.8224 14.678 65.8043 14.7007C65.7861 14.7235 65.7679 14.7449 65.7511 14.7676C65.7329 14.7903 65.7148 14.8117 65.6979 14.8345C65.6798 14.8559 65.6629 14.8786 65.6448 14.9013C65.6266 14.9241 65.6084 14.9455 65.5916 14.9682C65.5734 14.9909 65.5553 15.0123 65.5384 15.0351C65.5203 15.0565 65.5034 15.0792 65.4853 15.1019C65.4671 15.1247 65.449 15.1461 65.4321 15.1688C65.4139 15.1915 65.3958 15.2129 65.3789 15.2357C65.3608 15.257 65.3439 15.2798 65.3258 15.3025C65.3076 15.3252 65.2895 15.3466 65.2726 15.3694C65.2544 15.3921 65.2363 15.4135 65.2194 15.4362C65.2013 15.4576 65.1844 15.4804 65.1663 15.5031C65.1481 15.5258 65.13 15.5472 65.1131 15.57C65.095 15.5927 65.0768 15.6141 65.0599 15.6368C65.0418 15.6596 65.0236 15.681 65.0068 15.7037C64.9886 15.7251 64.9718 15.7478 64.9536 15.7706C64.9355 15.7933 64.9173 15.8147 64.9004 15.8374C64.894 15.8441 64.8888 15.8521 64.8823 15.8588C63.7049 12.1666 61.7793 9.08676 59.1443 6.68631C56.0595 3.87798 52.2432 2.4551 47.802 2.4551C47.6256 2.4551 47.448 2.45777 47.2703 2.46179C43.9067 2.54871 40.8516 3.43801 38.1869 5.10562C37.4906 5.54158 36.8435 6.00295 36.2444 6.48973C35.6298 6.02301 34.9555 5.60711 34.2254 5.2447C32.244 4.26446 30.1343 3.76699 27.9545 3.76699C27.8313 3.76699 27.7095 3.76833 27.5863 3.77234C24.0994 3.86194 21.1546 4.98794 18.8361 7.12093C18.272 7.6398 17.7585 8.19211 17.2943 8.77784C17.2761 8.80058 17.258 8.82197 17.2411 8.84471C17.2229 8.86744 17.2048 8.88884 17.1879 8.91157C17.1698 8.93431 17.1516 8.9557 17.1348 8.97844C17.1166 9.00117 17.0985 9.02257 17.0816 9.0453C17.0634 9.06803 17.0453 9.08943 17.0284 9.11217C17.0103 9.1349 16.9921 9.1563 16.9753 9.17903C16.9571 9.20176 16.939 9.22316 16.9221 9.2459C16.904 9.26863 16.8858 9.29003 16.8689 9.31276C16.8508 9.33549 16.8326 9.35689 16.8158 9.37963C16.7976 9.40236 16.7795 9.42376 16.7626 9.44649C16.7445 9.46922 16.7263 9.49062 16.7094 9.51335C16.6913 9.53609 16.6731 9.55749 16.6563 9.58022C16.6381 9.60295 16.62 9.62435 16.6031 9.64708C16.585 9.66982 16.5668 9.69122 16.5499 9.71395C16.5318 9.73668 16.5136 9.75808 16.4968 9.78081C16.4786 9.80355 16.4605 9.82495 16.4436 9.84768C16.4255 9.87041 16.4073 9.89181 16.3905 9.91454C16.3723 9.93728 16.3541 9.95867 16.3373 9.98141C16.3191 10.0041 16.301 10.0255 16.2841 10.0483C16.266 10.071 16.2478 10.0924 16.231 10.1151C16.2128 10.1379 16.1946 10.1593 16.1778 10.182C16.1596 10.2047 16.1415 10.2261 16.1246 10.2489C16.1065 10.2716 16.0883 10.293 16.0715 10.3157C16.0533 10.3385 16.0352 10.3599 16.0183 10.3826C16.0001 10.4053 15.982 10.4267 15.9651 10.4495C15.947 10.4722 15.9288 10.4936 15.912 10.5163C15.8938 10.5391 15.8757 10.5605 15.8588 10.5832C15.8406 10.6059 15.8225 10.6273 15.8056 10.6501C15.7875 10.6728 15.7693 10.6942 15.7525 10.7169C15.7343 10.7397 15.7162 10.7611 15.6993 10.7838C15.6812 10.8065 15.663 10.8279 15.6461 10.8507C15.628 10.8734 15.6098 10.8948 15.593 10.9175C15.5748 10.9403 15.5567 10.9616 15.5398 10.9844C15.5217 11.0071 15.5035 11.0285 15.4866 11.0512C15.4685 11.074 15.4503 11.0954 15.4335 11.1181C15.4153 11.1408 15.3972 11.1622 15.3803 11.185C15.3622 11.2077 15.344 11.2291 15.3271 11.2518C15.309 11.2746 15.2908 11.296 15.274 11.3187C15.2558 11.3414 15.2377 11.3628 15.2208 11.3856C15.2027 11.4083 15.1845 11.4297 15.1677 11.4524C15.1495 11.4752 15.1313 11.4966 15.1145 11.5193C15.0963 11.542 15.0782 11.5634 15.0613 11.5862C15.0432 11.6089 15.025 11.6303 15.0082 11.653C14.99 11.6758 14.9719 11.6972 14.955 11.7199C14.9368 11.7426 14.9187 11.764 14.9018 11.7868C14.8837 11.8095 14.8655 11.8309 14.8487 11.8536C14.8305 11.8764 14.8124 11.8978 14.7955 11.9205C14.7773 11.9432 14.7592 11.9646 14.7423 11.9874C14.7242 12.0101 14.706 12.0315 14.6892 12.0542C14.671 12.077 14.6529 12.0984 14.636 12.1211C14.6178 12.1438 14.5997 12.1652 14.5828 12.1879C14.5647 12.2107 14.5465 12.2321 14.5297 12.2548C14.5115 12.2775 14.4934 12.2989 14.4765 12.3217C14.4584 12.3444 14.4402 12.3658 14.4233 12.3885C14.4052 12.4113 14.387 12.4327 14.3702 12.4554C14.352 12.4781 14.3339 12.4995 14.317 12.5223C14.2989 12.545 14.2807 12.5664 14.2638 12.5891C14.2457 12.6119 14.2275 12.6333 14.2107 12.656C14.1925 12.6787 14.1744 12.7001 14.1575 12.7229C14.1394 12.7456 14.1212 12.767 14.1043 12.7897C14.0862 12.8125 14.068 12.8339 14.0512 12.8566C14.033 12.8793 14.0149 12.9007 13.998 12.9235C13.9799 12.9462 13.9617 12.9676 13.9449 12.9903C13.9267 13.0131 13.9085 13.0345 13.8917 13.0572C13.8735 13.0799 13.8554 13.1013 13.8385 13.1241C13.8204 13.1468 13.8022 13.1682 13.7854 13.1909C13.7672 13.2137 13.7491 13.2351 13.7322 13.2578C13.714 13.2805 13.6959 13.3019 13.679 13.3247C13.6609 13.3474 13.6427 13.3688 13.6259 13.3915C13.6077 13.4143 13.5896 13.4356 13.5727 13.4584C13.5545 13.4811 13.5364 13.5025 13.5195 13.5252C13.5014 13.548 13.4832 13.5694 13.4664 13.5921C13.4482 13.6148 13.4301 13.6362 13.4132 13.659C13.395 13.6817 13.3769 13.7031 13.36 13.7258C13.3419 13.7486 13.3237 13.77 13.3069 13.7927C13.2887 13.8154 13.2706 13.8368 13.2537 13.8596C13.2356 13.8823 13.2174 13.9037 13.2005 13.9264C13.1824 13.9492 13.1642 13.9706 13.1474 13.9933C13.1292 14.016 13.1111 14.0374 13.0942 14.0602C13.0761 14.0829 13.0579 14.1043 13.041 14.127C13.0229 14.1498 13.0047 14.1712 12.9879 14.1939C12.9697 14.2166 12.9516 14.238 12.9347 14.2608C12.9166 14.2835 12.8984 14.3049 12.8816 14.3276C12.8634 14.3504 12.8452 14.3718 12.8284 14.3945C12.8102 14.4172 12.7921 14.4386 12.7752 14.4614C12.7571 14.4841 12.7389 14.5055 12.7221 14.5282C12.7039 14.551 12.6857 14.5724 12.6689 14.5951C12.6507 14.6178 12.6326 14.6392 12.6157 14.6619C12.5976 14.6847 12.5794 14.7061 12.5626 14.7288C12.5444 14.7515 12.5263 14.7729 12.5094 14.7957C12.4912 14.8184 12.4731 14.8398 12.4562 14.8625C12.4381 14.8853 12.4199 14.9067 12.4031 14.9294C12.3849 14.9521 12.3668 14.9735 12.3499 14.9963C12.3317 15.019 12.3136 15.0404 12.2967 15.0631C12.2786 15.0859 12.2604 15.1073 12.2436 15.13C12.2254 15.1527 12.2073 15.1741 12.1904 15.1969C12.1722 15.2196 12.1541 15.241 12.1372 15.2637C12.1191 15.2865 12.1009 15.3079 12.0841 15.3306C12.0659 15.3533 12.0478 15.3747 12.0309 15.3975C12.0128 15.4202 11.9946 15.4416 11.9777 15.4643C10.5812 17.2068 9.63329 19.2475 9.14832 21.5892L2.57399 57.3284C2.06568 60.221 2.32243 62.9571 3.33386 65.4578C4.37123 68.0281 6.07641 70.0983 8.40141 71.6121C10.5799 73.031 13.0735 73.7504 15.8121 73.7504C15.9457 73.7504 16.0792 73.7491 16.2128 73.7451C19.7827 73.6541 22.756 72.5148 25.0525 70.359C25.5751 69.8683 26.0535 69.3467 26.4892 68.7957C26.5074 68.773 26.5256 68.7516 26.5424 68.7289C26.5606 68.7061 26.5787 68.6847 26.5956 68.662C26.6137 68.6393 26.6319 68.6179 26.6487 68.5951C26.6669 68.5724 26.685 68.551 26.7019 68.5283C26.7201 68.5055 26.7382 68.4842 26.7551 68.4614C26.7732 68.4387 26.7914 68.4173 26.8082 68.3946C26.8264 68.3718 26.8445 68.3504 26.8614 68.3277C26.8796 68.305 26.8977 68.2836 26.9146 68.2608C26.9327 68.2381 26.9509 68.2167 26.9677 68.194C26.9859 68.1712 27.004 68.1498 27.0209 68.1271C27.0391 68.1044 27.0572 68.083 27.0741 68.0602C27.0922 68.0375 27.1104 68.0161 27.1272 67.9934C27.1454 67.9706 27.1635 67.9492 27.1804 67.9265C27.1985 67.9038 27.2167 67.8824 27.2336 67.8596C27.2517 67.8369 27.2699 67.8155 27.2867 67.7928C27.3049 67.77 27.323 67.7486 27.3399 67.7259C27.358 67.7032 27.3762 67.6818 27.3931 67.659C27.4112 67.6363 27.4294 67.6149 27.4462 67.5922C27.4644 67.5694 27.4825 67.548 27.4994 67.5253C27.5175 67.5026 27.5357 67.4812 27.5525 67.4584C27.5707 67.4357 27.5889 67.4143 27.6057 67.3916C27.6239 67.3688 27.642 67.3474 27.6589 67.3247C27.677 67.302 27.6952 67.2806 27.712 67.2578C27.7302 67.2351 27.7484 67.2137 27.7652 67.191C27.7834 67.1683 27.8015 67.1469 27.8184 67.1241C27.8365 67.1014 27.8547 67.08 27.8715 67.0573C27.8897 67.0345 27.9078 67.0131 27.9247 66.9904C27.9429 66.9677 27.961 66.9463 27.9779 66.9235C27.996 66.9008 28.0142 66.8794 28.031 66.8567C28.0492 66.8339 28.0673 66.8125 28.0842 66.7898C28.1024 66.7671 28.1205 66.7457 28.1374 66.7229C28.1555 66.7002 28.1737 66.6788 28.1905 66.6561C28.2087 66.6333 28.2268 66.6119 28.2437 66.5892C28.2618 66.5665 28.28 66.5451 28.2969 66.5223C28.315 66.4996 28.3332 66.4782 28.35 66.4555C28.3682 66.4327 28.3863 66.4113 28.4032 66.3886C28.4213 66.3659 28.4395 66.3445 28.4564 66.3217C28.4745 66.299 28.4927 66.2776 28.5095 66.2549C28.5277 66.2321 28.5458 66.2107 28.5627 66.188C28.5808 66.1653 28.599 66.1439 28.6159 66.1211C28.634 66.0984 28.6522 66.077 28.669 66.0543C28.6872 66.0315 28.7053 66.0102 28.7222 65.9874C28.7403 65.9647 28.7585 65.9433 28.7753 65.9206C28.7935 65.8978 28.8117 65.8764 28.8285 65.8537C28.8467 65.831 28.8648 65.8096 28.8817 65.7868C28.8998 65.7641 28.918 65.7427 28.9348 65.72C28.953 65.6972 28.9712 65.6758 28.988 65.6531C29.0062 65.6304 29.0243 65.609 29.0412 65.5862C29.0593 65.5635 29.0775 65.5421 29.0943 65.5194C29.1125 65.4966 29.1306 65.4752 29.1475 65.4525C29.1657 65.4298 29.1838 65.4084 29.2007 65.3856C29.2188 65.3629 29.237 65.3415 29.2538 65.3188C29.272 65.296 29.2901 65.2746 29.307 65.2519C29.3252 65.2292 29.3433 65.2078 29.3602 65.185C29.3783 65.1623 29.3965 65.1409 29.4133 65.1182C29.4315 65.0954 29.4496 65.074 29.4665 65.0513C29.4846 65.0286 29.5028 65.0072 29.5197 64.9844C29.5378 64.9617 29.556 64.9403 29.5728 64.9176C29.591 64.8948 29.6091 64.8734 29.626 64.8507C29.6441 64.828 29.6623 64.8066 29.6792 64.7838C29.6843 64.7772 29.6895 64.7705 29.6947 64.7651C30.6984 67.3341 32.3867 69.4055 34.7117 70.918C36.8876 72.3356 39.4084 73.0537 42.2015 73.0537C42.3403 73.0537 42.4803 73.0524 42.6203 73.0483C46.0878 72.9601 49.0352 71.8434 51.3835 69.7318C52.0021 69.1755 52.557 68.5818 53.0498 67.9519C53.0861 67.9078 53.1224 67.8636 53.1574 67.8182C53.1756 67.7954 53.1937 67.774 53.2106 67.7513C53.2469 67.7072 53.2832 67.6631 53.3182 67.6176C53.3364 67.5948 53.3545 67.5735 53.3714 67.5507C53.3895 67.528 53.4077 67.5066 53.4245 67.4839C53.4609 67.4397 53.4972 67.3956 53.5322 67.3501C53.5503 67.3274 53.5685 67.306 53.5853 67.2833C53.6216 67.2391 53.658 67.195 53.693 67.1495C53.7111 67.1268 53.7293 67.1054 53.7461 67.0827C53.7811 67.0385 53.8187 66.9944 53.8538 66.9489C53.8719 66.9262 53.8901 66.9048 53.9069 66.8821C53.9419 66.8379 53.9795 66.7938 54.0145 66.7483C54.0327 66.7256 54.0509 66.7042 54.0677 66.6815C54.104 66.6373 54.1403 66.5932 54.1753 66.5477C54.1935 66.525 54.2116 66.5036 54.2285 66.4809C54.2648 66.4367 54.3011 66.3926 54.3361 66.3472C54.3543 66.3244 54.3724 66.303 54.3893 66.2803C54.4075 66.2576 54.4256 66.2362 54.4425 66.2134C54.4775 66.1693 54.5151 66.1252 54.5501 66.081C54.5682 66.0583 54.5864 66.0369 54.6033 66.0142C54.6396 65.97 54.6759 65.9259 54.7109 65.8804C54.729 65.8577 54.7472 65.8363 54.764 65.8136C54.7991 65.7694 54.8367 65.7253 54.8717 65.6798C54.8898 65.6571 54.908 65.6357 54.9248 65.613C54.9599 65.5688 54.9975 65.5247 55.0325 65.4792C55.0506 65.4565 55.0688 65.4351 55.0856 65.4124C55.1219 65.3683 55.1582 65.3241 55.1933 65.2787C55.2114 65.2559 55.2296 65.2345 55.2464 65.2118C55.2762 65.1743 55.3074 65.1369 55.3372 65.0981C55.5719 65.4846 55.817 65.8644 56.0802 66.2295C57.5442 68.2702 59.3531 69.9378 61.4564 71.1842C64.2728 72.8518 67.4316 73.705 70.8446 73.7197H70.9327C74.4922 73.721 77.6082 72.9012 80.1952 71.2804C80.8707 70.8565 81.5087 70.4058 82.1078 69.9311C82.6278 70.3671 83.1919 70.7709 83.7961 71.1414C85.7931 72.365 88.0597 72.9922 90.6013 73.0029C94.14 73.0042 97.1354 71.9357 99.5058 69.8281C100.026 69.3668 100.5 68.876 100.939 68.3651C102.235 70.1063 103.921 71.5185 105.922 72.4278C107.781 73.2743 109.777 73.6488 111.756 73.6006C115.857 73.503 119.886 71.5934 122.485 68.3183C122.503 68.2956 122.521 68.2742 122.538 68.2515C122.556 68.2287 122.574 68.2073 122.591 68.1846C122.609 68.1619 122.627 68.1405 122.644 68.1177C122.662 68.095 122.681 68.0736 122.697 68.0509C122.716 68.0281 122.734 68.0067 122.751 67.984C122.769 67.9613 122.787 67.9399 122.804 67.9171C122.822 67.8944 122.84 67.873 122.857 67.8503C122.875 67.8275 122.893 67.8061 122.91 67.7834C122.928 67.7607 122.946 67.7393 122.963 67.7165C122.981 67.6938 123 67.6724 123.016 67.6497C123.035 67.6269 123.053 67.6055 123.07 67.5828C123.088 67.5601 123.106 67.5387 123.123 67.5159C123.141 67.4932 123.159 67.4718 123.176 67.4491C123.194 67.4263 123.212 67.405 123.229 67.3822C123.247 67.3595 123.265 67.3381 123.282 67.3154C123.3 67.2926 123.319 67.2712 123.335 67.2485C123.354 67.2258 123.372 67.2044 123.389 67.1816C123.407 67.1589 123.425 67.1375 123.442 67.1148C123.46 67.092 123.478 67.0706 123.495 67.0479C123.513 67.0252 123.531 67.0038 123.548 66.981C123.566 66.9583 123.584 66.9369 123.601 66.9142C123.619 66.8914 123.638 66.87 123.654 66.8473C123.673 66.8246 123.691 66.8032 123.708 66.7804C123.726 66.7577 123.744 66.7363 123.761 66.7136C123.779 66.6908 123.797 66.6694 123.814 66.6467C123.832 66.624 123.85 66.6026 123.867 66.5798C123.885 66.5571 123.903 66.5357 123.92 66.513C123.938 66.4902 123.957 66.4688 123.973 66.4461C123.992 66.4234 124.01 66.402 124.027 66.3792C124.045 66.3565 124.063 66.3351 124.08 66.3124C124.098 66.2896 124.116 66.2682 124.133 66.2455C124.151 66.2228 124.169 66.2014 124.186 66.1786C124.204 66.1559 124.222 66.1345 124.239 66.1118C124.257 66.0891 124.276 66.0677 124.292 66.0449C124.311 66.0222 124.329 66.0008 124.346 65.9781C124.364 65.9553 124.382 65.9339 124.399 65.9112C124.417 65.8885 124.435 65.8671 124.452 65.8443C124.47 65.8216 124.488 65.8002 124.505 65.7775C124.523 65.7547 124.541 65.7333 124.558 65.7106C124.576 65.6879 124.595 65.6665 124.611 65.6437C124.63 65.621 124.648 65.5996 124.665 65.5769C124.683 65.5541 124.701 65.5327 124.718 65.51C124.736 65.4873 124.754 65.4659 124.771 65.4431C124.789 65.4204 124.807 65.399 124.824 65.3763C124.842 65.3535 124.86 65.3321 124.877 65.3094C124.895 65.2867 124.914 65.2653 124.93 65.2425C124.949 65.2198 124.967 65.1984 124.984 65.1757C125.002 65.1529 125.02 65.1315 125.037 65.1088C125.055 65.0861 125.073 65.0647 125.09 65.0419C125.108 65.0192 125.126 64.9978 125.143 64.9751C125.161 64.9523 125.179 64.931 125.196 64.9082C125.214 64.8855 125.233 64.8641 125.249 64.8414C125.268 64.8186 125.286 64.7972 125.303 64.7745C125.321 64.7518 125.339 64.7304 125.356 64.7076C125.374 64.6849 125.392 64.6635 125.409 64.6408C125.417 64.6314 125.424 64.622 125.432 64.6113C125.448 64.6568 125.462 64.7023 125.478 64.7477C126.413 67.3929 128.062 69.546 130.382 71.1481C132.638 72.7087 135.291 73.5017 138.267 73.5084H138.309C141.773 73.5084 144.748 72.4706 147.151 70.4246C147.79 69.8803 148.365 69.2946 148.878 68.6714C148.896 68.65 148.913 68.6272 148.931 68.6045C148.949 68.5831 148.966 68.5604 148.984 68.5376C149.003 68.5162 149.019 68.4935 149.038 68.4708C149.056 68.4494 149.073 68.4266 149.091 68.4039C149.109 68.3825 149.126 68.3598 149.144 68.337C149.162 68.3157 149.179 68.2929 149.197 68.2702C149.215 68.2488 149.232 68.2261 149.25 68.2033C149.268 68.1819 149.285 68.1592 149.303 68.1365C149.322 68.1151 149.338 68.0923 149.357 68.0696C149.375 68.0482 149.392 68.0255 149.41 68.0027C149.428 67.9813 149.445 67.9586 149.463 67.9359C149.481 67.9145 149.498 67.8917 149.516 67.869C149.534 67.8476 149.551 67.8249 149.569 67.8021C149.587 67.7807 149.604 67.758 149.622 67.7353C149.641 67.7139 149.657 67.6911 149.676 67.6684C149.694 67.647 149.711 67.6243 149.729 67.6015C149.747 67.5801 149.764 67.5574 149.782 67.5347C149.8 67.5133 149.817 67.4905 149.835 67.4678C149.853 67.4464 149.87 67.4237 149.888 67.4009C149.906 67.3795 149.923 67.3568 149.941 67.3341C149.96 67.3127 149.976 67.2899 149.995 67.2672C150.013 67.2458 150.03 67.2231 150.048 67.2003C150.066 67.1789 150.083 67.1562 150.101 67.1335C150.119 67.1121 150.136 67.0894 150.154 67.0666C150.172 67.0452 150.189 67.0225 150.207 66.9998C150.225 66.9784 150.242 66.9556 150.26 66.9329C150.262 66.9315 150.264 66.9289 150.266 66.9275C151.259 67.8529 152.344 68.7048 153.513 69.4671C157.685 72.1831 162.552 73.602 167.979 73.6862L168.58 73.6902C173.289 73.6902 177.602 72.8477 181.401 71.1842C185.458 69.4042 188.821 66.87 191.395 63.6512C191.401 63.6418 191.408 63.6338 191.415 63.6244C191.426 63.611 191.437 63.5977 191.449 63.5843C191.456 63.5763 191.462 63.5669 191.47 63.5575C191.48 63.5442 191.492 63.5308 191.504 63.5174C191.51 63.5081 191.517 63.5 191.524 63.4907C191.535 63.4773 191.546 63.4639 191.558 63.4506C191.565 63.4412 191.571 63.4332 191.579 63.4238C191.589 63.4104 191.601 63.3971 191.613 63.3837C191.619 63.3757 191.625 63.3663 191.633 63.357C191.644 63.3436 191.655 63.3302 191.667 63.3168C191.673 63.3075 191.68 63.2994 191.688 63.2901C191.698 63.2767 191.71 63.2633 191.721 63.25C191.728 63.2406 191.734 63.2326 191.742 63.2232C191.753 63.2098 191.764 63.1965 191.776 63.1831C191.782 63.1737 191.789 63.1657 191.797 63.1564C191.807 63.143 191.819 63.1296 191.83 63.1162C191.837 63.1082 191.843 63.0989 191.851 63.0895C191.862 63.0761 191.873 63.0627 191.885 63.0494C191.891 63.04 191.898 63.032 191.906 63.0226C191.916 63.0093 191.928 62.9959 191.939 62.9825C191.946 62.9731 191.952 62.9651 191.96 62.9558C191.97 62.9424 191.982 62.929 191.994 62.9156C192 62.9076 192.007 62.8983 192.015 62.8889C192.025 62.8755 192.037 62.8622 192.048 62.8488C192.055 62.8394 192.061 62.8314 192.069 62.822C192.079 62.8087 192.091 62.7953 192.103 62.7819C192.109 62.7726 192.116 62.7645 192.123 62.7552C192.134 62.7418 192.145 62.7284 192.157 62.7151C192.164 62.7057 192.17 62.6977 192.178 62.6883C192.188 62.6749 192.2 62.6616 192.212 62.6482C192.218 62.6388 192.225 62.6308 192.232 62.6214C192.243 62.6081 192.254 62.5947 192.266 62.5813C192.273 62.572 192.279 62.5639 192.287 62.5546C192.297 62.5412 192.309 62.5278 192.321 62.5145C192.327 62.5064 192.334 62.4971 192.341 62.4877C192.352 62.4743 192.363 62.461 192.375 62.4476C192.381 62.4382 192.388 62.4302 192.396 62.4208C192.406 62.4075 192.418 62.3941 192.429 62.3807C192.436 62.3714 192.442 62.3633 192.45 62.354C192.461 62.3406 192.472 62.3272 192.484 62.3139C192.49 62.3058 192.497 62.2965 192.505 62.2871C192.515 62.2737 192.527 62.2604 192.538 62.247C192.545 62.2376 192.551 62.2296 192.559 62.2202C192.57 62.2069 192.581 62.1935 192.593 62.1801C192.599 62.1708 192.606 62.1627 192.614 62.1534C192.624 62.14 192.636 62.1266 192.647 62.1133C192.654 62.1052 192.66 62.0959 192.668 62.0865C192.678 62.0731 192.69 62.0598 192.702 62.0464C192.708 62.037 192.715 62.029 192.723 62.0197C192.733 62.0063 192.745 61.9929 192.756 61.9795C192.763 61.9702 192.769 61.9622 192.777 61.9528C192.787 61.9394 192.799 61.926 192.811 61.9127C192.817 61.9033 192.824 61.8953 192.831 61.8859C192.842 61.8726 192.853 61.8592 192.865 61.8458C192.872 61.8378 192.878 61.8284 192.886 61.8191C192.896 61.8057 192.908 61.7923 192.92 61.7789C192.926 61.7696 192.933 61.7616 192.94 61.7522C192.951 61.7388 192.962 61.7255 192.974 61.7121C192.981 61.7027 192.987 61.6947 192.995 61.6853C193.005 61.672 193.017 61.6586 193.029 61.6452C193.035 61.6372 193.042 61.6278 193.049 61.6185C193.06 61.6051 193.071 61.5917 193.083 61.5783C193.089 61.569 193.096 61.561 193.104 61.5516C193.114 61.5382 193.126 61.5249 193.137 61.5115C193.144 61.5021 193.15 61.4941 193.158 61.4847C193.169 61.4714 193.18 61.458 193.192 61.4446C193.198 61.4366 193.205 61.4272 193.213 61.4179C193.223 61.4045 193.235 61.3911 193.246 61.3778C193.253 61.3684 193.259 61.3604 193.267 61.351C193.278 61.3376 193.289 61.3243 193.301 61.3109C193.307 61.3015 193.314 61.2935 193.322 61.2841C193.332 61.2708 193.344 61.2574 193.355 61.244C193.362 61.236 193.368 61.2266 193.376 61.2173C193.386 61.2039 193.398 61.1905 193.41 61.1772C193.416 61.1678 193.423 61.1598 193.431 61.1504C193.441 61.137 193.453 61.1237 193.464 61.1103C193.471 61.1009 193.477 61.0929 193.485 61.0835C193.495 61.0702 193.507 61.0568 193.519 61.0434C193.525 61.0354 193.532 61.026 193.539 61.0167C193.55 61.0033 193.562 60.9899 193.573 60.9766C193.58 60.9672 193.586 60.9592 193.594 60.9498C193.604 60.9364 193.616 60.9231 193.628 60.9097C193.634 60.9003 193.641 60.8923 193.648 60.883C193.659 60.8696 193.67 60.8562 193.682 60.8428C193.689 60.8348 193.695 60.8254 193.703 60.8161C193.713 60.8027 193.725 60.7893 193.737 60.776C193.743 60.7666 193.75 60.7586 193.757 60.7492C193.768 60.7358 193.779 60.7225 193.791 60.7091C193.797 60.6997 193.804 60.6917 193.812 60.6824C193.822 60.669 193.834 60.6556 193.845 60.6422C193.852 60.6329 193.858 60.6249 193.866 60.6155C193.877 60.6021 193.888 60.5887 193.9 60.5754C193.906 60.566 193.913 60.558 193.921 60.5486C193.931 60.5353 193.943 60.5219 193.954 60.5085C193.961 60.4991 193.967 60.4911 193.975 60.4818C193.986 60.4684 193.997 60.455 194.009 60.4416C194.015 60.4323 194.022 60.4243 194.03 60.4149C194.04 60.4015 194.052 60.3882 194.063 60.3748C194.07 60.3668 194.076 60.3574 194.084 60.348C194.094 60.3347 194.106 60.3213 194.118 60.3079C194.124 60.2986 194.131 60.2905 194.139 60.2812C194.149 60.2678 194.161 60.2544 194.172 60.2411C194.179 60.2317 194.185 60.2237 194.193 60.2143C194.203 60.2009 194.215 60.1876 194.227 60.1742C194.233 60.1662 194.24 60.1568 194.247 60.1474C194.258 60.1341 194.27 60.1207 194.281 60.1073C194.288 60.098 194.294 60.0899 194.302 60.0806C194.312 60.0672 194.324 60.0538 194.336 60.0405C194.342 60.0311 194.349 60.0231 194.356 60.0137C194.367 60.0003 194.378 59.987 194.39 59.9736C194.397 59.9656 194.403 59.9562 194.411 59.9468C194.421 59.9335 194.433 59.9201 194.445 59.9067C194.451 59.8974 194.458 59.8893 194.465 59.88C194.476 59.8666 194.487 59.8532 194.499 59.8399C194.506 59.8305 194.512 59.8225 194.52 59.8131C194.53 59.7997 194.542 59.7864 194.553 59.773C194.56 59.765 194.566 59.7556 194.574 59.7462C194.585 59.7329 194.596 59.7195 194.608 59.7061C194.614 59.6968 194.621 59.6887 194.629 59.6794C194.639 59.666 194.651 59.6526 194.662 59.6393C194.669 59.6299 194.675 59.6219 194.683 59.6125C194.694 59.5991 194.705 59.5858 194.717 59.5724C194.723 59.5644 194.73 59.555 194.738 59.5457C194.748 59.5323 194.76 59.5189 194.771 59.5055C194.778 59.4962 194.784 59.4882 194.792 59.4788C194.802 59.4654 194.814 59.452 194.826 59.4387C194.832 59.4293 194.839 59.4213 194.847 59.4119C194.857 59.3986 194.869 59.3852 194.88 59.3718C194.887 59.3624 194.893 59.3544 194.901 59.3451C194.911 59.3317 194.923 59.3183 194.935 59.3049C194.941 59.2969 194.948 59.2876 194.955 59.2782C194.966 59.2648 194.978 59.2515 194.989 59.2381C194.996 59.2287 195.002 59.2207 195.01 59.2113C195.02 59.198 195.032 59.1846 195.044 59.1712C195.05 59.1619 195.057 59.1538 195.064 59.1445C195.075 59.1311 195.086 59.1177 195.098 59.1043C195.105 59.0963 195.111 59.087 195.119 59.0776C195.129 59.0642 195.141 59.0509 195.153 59.0375C195.159 59.0281 195.166 59.0201 195.173 59.0107C195.184 58.9974 195.195 58.984 195.207 58.9706C195.214 58.9613 195.22 58.9532 195.228 58.9439C195.238 58.9305 195.25 58.9171 195.261 58.9038C195.268 58.8957 195.274 58.8864 195.282 58.877C195.293 58.8636 195.304 58.8503 195.316 58.8369C195.322 58.8275 195.329 58.8195 195.337 58.8101C195.347 58.7968 195.359 58.7834 195.37 58.77C195.377 58.7607 195.383 58.7526 195.391 58.7433C195.402 58.7299 195.413 58.7165 195.425 58.7032C195.431 58.6951 195.438 58.6858 195.446 58.6764C195.456 58.663 195.468 58.6497 195.479 58.6363C195.486 58.6269 195.492 58.6189 195.5 58.6095C195.51 58.5962 195.522 58.5828 195.534 58.5694C195.54 58.5601 195.547 58.552 195.555 58.5427C195.565 58.5293 195.577 58.5159 195.588 58.5026C195.595 58.4932 195.601 58.4852 195.609 58.4758C195.619 58.4624 195.631 58.4491 195.643 58.4357C195.649 58.4263 195.656 58.4183 195.663 58.409C195.674 58.3956 195.686 58.3822 195.697 58.3688C195.704 58.3595 195.71 58.3514 195.718 58.3421C195.728 58.3287 195.74 58.3153 195.752 58.302C195.758 58.2939 195.765 58.2846 195.772 58.2752C195.783 58.2618 195.794 58.2485 195.806 58.2351C195.813 58.2257 195.819 58.2177 195.827 58.2084C195.837 58.195 195.849 58.1816 195.861 58.1682C195.867 58.1589 195.874 58.1509 195.881 58.1415C195.892 58.1281 195.903 58.1147 195.915 58.1014C195.922 58.092 195.928 58.084 195.936 58.0746C195.946 58.0613 195.958 58.0479 195.969 58.0345C195.976 58.0265 195.982 58.0171 195.99 58.0078C196.001 57.9944 196.012 57.981 196.024 57.9676C196.03 57.9583 196.037 57.9503 196.045 57.9409C196.055 57.9275 196.067 57.9142 196.078 57.9008C196.085 57.8914 196.091 57.8834 196.099 57.874C196.11 57.8607 196.121 57.8473 196.133 57.8339C196.139 57.8259 196.146 57.8165 196.154 57.8072C196.164 57.7938 196.176 57.7804 196.187 57.7671C196.194 57.7577 196.2 57.7497 196.208 57.7403C196.218 57.7269 196.23 57.7136 196.242 57.7002C196.248 57.6908 196.255 57.6828 196.263 57.6734C196.273 57.6601 196.285 57.6467 196.296 57.6333C196.303 57.6253 196.309 57.6159 196.317 57.6066C196.327 57.5932 196.339 57.5798 196.351 57.5665C196.357 57.5571 196.364 57.5491 196.371 57.5397C196.382 57.5263 196.394 57.513 196.405 57.4996C196.412 57.4902 196.418 57.4822 196.426 57.4728C196.436 57.4595 196.448 57.4461 196.46 57.4327C196.466 57.4247 196.473 57.4153 196.48 57.406C196.491 57.3926 196.502 57.3792 196.514 57.3659C196.521 57.3565 196.527 57.3485 196.535 57.3391C196.545 57.3257 196.557 57.3124 196.569 57.299C196.575 57.2896 196.582 57.2816 196.589 57.2722C196.6 57.2589 196.611 57.2455 196.623 57.2321C196.63 57.2241 196.636 57.2147 196.644 57.2054C196.654 57.192 196.666 57.1786 196.677 57.1653C196.684 57.1559 196.69 57.1479 196.698 57.1385C196.709 57.1251 196.72 57.1118 196.732 57.0984C196.738 57.089 196.745 57.081 196.753 57.0717C196.763 57.0583 196.775 57.0449 196.786 57.0315C196.793 57.0235 196.799 57.0142 196.807 57.0048C196.818 56.9914 196.829 56.978 196.841 56.9647C196.847 56.9553 196.854 56.9473 196.862 56.9379C196.872 56.9246 196.884 56.9112 196.895 56.8978C199.472 53.6722 201.206 49.9559 202.036 45.9012L204.709 33.9337C205.949 28.3719 205.686 23.1458 203.926 18.3957L203.907 18.4893Z" fill="black"/>
<path id="Shape_3" d="M173.46 67.0281C168.033 66.9438 163.166 65.525 158.994 62.8089C157.397 61.7672 155.949 60.5596 154.689 59.2196C152.555 56.9422 150.922 54.2475 149.83 51.2052C148.116 46.4417 147.876 41.2437 149.115 35.7581L151.68 23.7505C152.611 19.6704 154.39 15.9821 156.98 12.7499C157.792 11.7375 158.689 10.7814 159.649 9.90676C161.753 7.98506 164.213 6.39502 166.958 5.18075C170.72 3.51448 175.022 2.66797 179.745 2.66797L180.347 2.67198C185.862 2.75623 190.749 4.2072 194.874 6.98209C199.084 9.81716 202.124 13.6886 203.908 18.4909C205.667 23.241 205.932 28.4671 204.691 34.0289L202.017 45.9964C201.187 50.0498 199.454 53.7674 196.877 56.993C194.302 60.2119 190.939 62.7461 186.883 64.526C183.084 66.1896 178.771 67.0321 174.063 67.0321L173.461 67.0281H173.46Z" fill="black"/>
<path id="Shape_4" d="M201.354 19.5031C199.781 15.2733 197.101 11.8565 193.382 9.3517C189.696 6.87101 185.303 5.57785 180.315 5.50028C175.75 5.43208 171.62 6.19701 168.048 7.77904C165.559 8.87963 163.362 10.3012 161.474 12.0236C160.618 12.8033 159.828 13.6444 159.104 14.5484C156.791 17.4383 155.197 20.7254 154.369 24.3562L151.796 36.3985C150.68 41.3359 150.888 45.987 152.411 50.2195C153.374 52.9048 154.799 55.2544 156.665 57.2457C157.778 58.4292 159.047 59.487 160.465 60.4124C164.203 62.8449 168.59 64.1181 173.506 64.1943C178.068 64.2625 182.207 63.4976 185.815 61.9182C189.46 60.3188 192.471 58.0588 194.765 55.1903C197.055 52.3244 198.602 49.0066 199.349 45.3584L202.024 33.3923C203.141 28.3828 202.913 23.7129 201.353 19.5031H201.354ZM180.852 28.9739L178.186 41.2717C178.035 41.947 177.789 42.5408 177.433 43.0797C177.121 43.5638 176.727 43.9382 176.226 44.2271C175.766 44.4959 175.285 44.6203 174.749 44.6122C174.18 44.6042 173.753 44.4772 173.446 44.2271C173.261 44.08 173.036 43.8339 172.925 43.2388C172.8 42.5688 172.846 41.7437 173.056 40.7742L175.735 28.4256C175.881 27.7502 176.128 27.1605 176.48 26.6176C176.806 26.1228 177.194 25.7416 177.675 25.4488C178.096 25.1933 178.553 25.0756 179.072 25.0837C179.602 25.0917 180.013 25.2228 180.359 25.4929C180.553 25.64 180.792 25.8861 180.897 26.4571C181.024 27.1498 181.01 27.9976 180.852 28.9725V28.9739Z" fill="#F9EC00"/>
<path id="Shape_5" d="M201.358 19.4976C200.296 16.6599 198.745 14.1832 196.703 12.1117C195.715 11.0927 194.603 10.174 193.379 9.34886C189.697 6.87219 185.303 5.57635 180.314 5.50012C175.749 5.43326 171.624 6.19953 168.048 7.77353C165.557 8.8768 163.36 10.2997 161.474 12.0261C161.147 12.3203 160.837 12.6239 160.535 12.9355C160.029 13.449 159.554 13.9799 159.106 14.5443C158.935 14.7636 158.764 14.9816 158.6 15.2009C156.559 17.929 155.138 20.9954 154.37 24.356L151.798 36.3997C151.364 38.3027 151.128 40.1642 151.095 41.9749C151.038 44.8635 151.479 47.6183 152.41 50.2207C153.006 51.8629 153.765 53.37 154.696 54.7514C155.283 55.6354 155.946 56.4699 156.672 57.2442C157.13 57.7243 157.603 58.187 158.109 58.6162C158.844 59.2648 159.627 59.8626 160.469 60.4109C164.208 62.8448 168.594 64.1165 173.511 64.1928C178.068 64.2596 182.208 63.4934 185.818 61.9194C189.461 60.3186 192.474 58.0626 194.768 55.1901C197.054 52.3269 198.606 49.0078 199.349 45.3609L202.028 33.3935C203.147 28.3826 202.918 23.7088 201.359 19.4976H201.358ZM180.853 28.9724L178.191 41.2688C178.035 41.9428 177.79 42.5406 177.44 43.0795C177.121 43.5596 176.729 43.9381 176.231 44.2242C175.766 44.493 175.285 44.6201 174.753 44.6121C174.181 44.604 173.757 44.477 173.446 44.2242C173.266 44.0811 173.038 43.8284 172.924 43.2387C172.802 42.5647 172.85 41.7395 173.055 40.7713L175.341 30.2348L175.732 28.4241C175.888 27.7501 176.133 27.1603 176.483 26.6134C176.81 26.1159 177.194 25.7374 177.675 25.4432C178.099 25.1905 178.557 25.0728 179.071 25.0808C179.602 25.0889 180.01 25.2239 180.362 25.4941C180.557 25.6371 180.795 25.8819 180.901 26.4542C181.024 27.1443 181.007 27.9961 180.852 28.9724H180.853Z" fill="#F9EC00"/>
<path id="Shape_6" d="M163.392 33.1273L158.239 58.0559C158.199 58.2498 158.157 58.4343 158.108 58.6202C157.602 58.1909 157.128 57.7269 156.671 57.2481C154.802 55.2515 153.38 52.9113 152.409 50.2246C150.891 45.9881 150.678 41.3396 151.797 36.4037L154.37 24.36C155.202 20.7305 156.795 17.4368 159.107 14.5482C159.555 13.9839 160.03 13.453 160.536 12.9395C161.85 15.0537 162.814 17.4622 163.41 20.1488C164.341 24.36 164.334 28.7222 163.394 33.1273H163.392Z" fill="#918A00"/>
<path id="Shape_7" d="M117.223 66.9149C122.46 66.7905 127.58 63.712 129.754 58.6062C129.958 58.1302 130.61 56.9359 130.496 56.4197C130.62 56.9827 130.779 57.5364 130.97 58.0793C131.905 60.7245 133.555 62.8776 135.875 64.4796C138.131 66.0403 140.784 66.8333 143.76 66.84H143.801C147.266 66.84 150.241 65.8022 152.644 63.7562C155.031 61.7221 156.555 59.1411 157.172 56.0948L162.32 31.1582C163.262 26.7572 163.268 22.3922 162.337 18.1824C161.347 13.7172 159.349 10.0142 156.398 7.17512C153.249 4.15149 149.276 2.6136 144.541 2.60156C141.182 2.60156 138.106 3.40795 135.399 5.00067C134.686 5.42058 134.019 5.86858 133.403 6.34198C132.796 5.85387 132.127 5.41657 131.401 5.03009C129.326 3.93084 127.096 3.37051 124.737 3.36516C121.25 3.36516 118.278 4.4136 115.905 6.48106C113.615 8.4723 112.093 11.0118 111.364 14.105L111.214 14.8418L103.924 49.9339C103.339 52.8251 103.523 55.5772 104.472 58.1141C105.736 61.4921 108.155 64.2697 111.391 65.7407C113.251 66.5872 115.247 66.9617 117.225 66.9135L117.223 66.9149Z" fill="black"/>
<path id="Shape_8" d="M159.712 30.5648L157.899 39.3322L154.714 54.7525L154.559 55.5188C154.068 57.9447 152.852 59.9987 150.941 61.6249C149.022 63.2591 146.612 64.0842 143.771 64.0762C141.337 64.0762 139.182 63.4356 137.369 62.1892C135.532 60.9175 134.225 59.2164 133.491 57.1276C132.772 55.1069 132.649 52.891 133.132 50.5414L133.899 46.8183L137.591 28.8959C137.804 27.9197 137.861 27.0678 137.771 26.3443C137.706 25.8723 137.576 25.5353 137.371 25.3427C137.183 25.1568 136.799 25.1153 136.504 25.1153C136.056 25.1153 135.697 25.217 135.385 25.4269C134.961 25.7131 134.585 26.0929 134.251 26.6064C133.941 27.0691 133.744 27.6 133.654 28.2152L133.646 28.2914L129.605 47.6622L127.98 55.4613C127.4 57.9126 126.199 59.9332 124.402 61.534C122.54 63.1936 120.115 64.0267 117.191 64.0187C114.823 64.0106 112.699 63.3781 110.887 62.1237C110.282 61.7105 109.743 61.2478 109.262 60.7343C109.123 60.5992 108.992 60.4561 108.87 60.305L108.862 60.313C108.055 59.3863 107.426 58.3178 106.976 57.1209C106.812 56.6916 106.681 56.2623 106.584 55.8157C106.183 54.1481 106.168 52.3628 106.552 50.5013L106.666 49.9369L111.893 24.7636L113.371 17.6559L113.894 15.1378V15.1204L113.983 14.6831C114.563 12.2238 115.788 10.1938 117.633 8.58501C119.52 6.9428 121.92 6.11769 124.78 6.12572C126.666 6.12572 128.487 6.5804 130.186 7.48174C131.484 8.17178 132.53 9.05707 133.305 10.1095C134.212 9.11591 135.356 8.20655 136.735 7.39749C139.038 6.04147 141.683 5.35142 144.591 5.35944C148.585 5.36747 151.94 6.65662 154.586 9.19214C156.309 10.8517 157.656 12.8644 158.62 15.206C159.085 16.3266 159.461 17.5222 159.739 18.7939C160.58 22.6012 160.571 26.5596 159.714 30.5675L159.712 30.5648Z" fill="#F9EC00"/>
<path id="Shape_9" d="M114.299 19.9277C114.014 19.144 113.695 18.3858 113.344 17.6543L106.524 50.4997C106.042 52.8573 106.19 55.0893 106.948 57.1193C107.397 58.3148 108.026 59.3847 108.835 60.3114L108.843 60.3034C108.966 60.4545 109.095 60.5976 109.234 60.7327C109.781 59.7056 110.198 58.6104 110.484 57.4563L115.066 35.3227C116.249 29.8063 115.989 24.627 114.298 19.9277H114.299Z" fill="#918A00"/>
<path id="Shape_10" d="M76.302 67.0305C72.8878 67.0158 69.7303 66.1639 66.9138 64.495C64.8093 63.2486 63.0003 61.581 61.5376 59.5403C61.0151 58.8141 60.5392 58.0438 60.1216 57.2535C58.5176 54.2245 57.7111 50.7114 57.7266 46.8145C57.7448 42.4563 58.869 38.4925 61.0695 35.0356C62.6904 32.4881 64.9221 30.315 67.7035 28.5765C68.147 28.2997 68.6047 28.0335 69.0754 27.7781C68.5464 27.2138 68.0705 26.5973 67.6581 25.942C66.4068 23.9468 65.7792 21.6279 65.7896 19.0456C65.7922 18.3796 65.8531 17.6976 65.9711 17.0209C66.2914 15.1754 67.0409 13.3875 68.1963 11.7118C69.5669 9.72327 71.4186 7.9714 73.6982 6.50172L73.8149 6.4295C76.0634 5.11761 78.5414 4.11865 81.2451 3.42459C83.8735 2.74926 86.6835 2.40691 89.5985 2.40825H89.7476C95.4168 2.43232 100.36 3.89933 104.437 6.76917C108.541 9.65774 111.496 13.5372 113.218 18.302C114.914 23.0013 115.172 28.1806 113.986 33.6997L109.404 55.8306C108.7 58.6871 107.205 61.1464 104.963 63.1403C102.593 65.2479 99.5974 66.3164 96.0587 66.315C93.5172 66.3043 91.2505 65.6785 89.2536 64.4535C88.6493 64.0831 88.0852 63.6792 87.5652 63.2432C86.9662 63.718 86.3282 64.1687 85.6526 64.5926C83.0657 66.2134 79.9497 67.0331 76.3902 67.0318H76.302V67.0305Z" fill="black"/>
<path id="Shape_11" d="M111.856 24.7603C111.685 22.8573 111.277 21.0293 110.648 19.2774C109.12 15.0662 106.515 11.6388 102.882 9.08719C99.2639 6.53563 94.8382 5.23845 89.7175 5.21304C86.9737 5.20502 84.3362 5.51661 81.8854 6.14781C79.419 6.77902 77.1731 7.68036 75.1969 8.83444L75.123 8.88526C73.1468 10.157 71.5545 11.6561 70.3952 13.3318C69.472 14.6798 68.8845 16.0772 68.6317 17.5175C68.5422 18.023 68.5007 18.5365 68.4929 19.0501C68.4852 21.0881 68.9662 22.8828 69.9297 24.4059C70.2811 24.9703 70.6896 25.5012 71.1706 25.9893C72.2651 27.0926 73.5799 27.8669 75.123 28.3055C73.9793 28.6345 72.9095 29.0209 71.9137 29.4756C70.9087 29.9303 69.9699 30.4278 69.0959 30.9747C68.091 31.5979 67.169 32.288 66.3352 33.0382C65.1513 34.1 64.1464 35.2782 63.3294 36.5753C61.9821 38.6802 61.1082 41.0058 60.6997 43.532C60.5195 44.6018 60.4378 45.6957 60.43 46.8244C60.4131 50.2358 61.1082 53.2929 62.4956 55.9033C62.5371 55.9795 62.5773 56.0544 62.6188 56.1226C62.9456 56.7378 63.3126 57.3182 63.7042 57.8664C64.9451 59.5929 66.4649 60.9997 68.253 62.0522C70.6546 63.4751 73.3569 64.2079 76.2888 64.2159C79.3762 64.2333 82.0462 63.5419 84.2182 62.1859C85.5577 61.3434 86.7091 60.4006 87.6648 59.3562C88.4156 60.3926 89.4128 61.2846 90.6213 62.0348C92.1968 62.995 94.0019 63.4925 95.978 63.5005C98.8775 63.5085 101.287 62.6754 103.164 61.0078C104.798 59.5595 105.925 57.8156 106.545 55.811C106.619 55.5917 106.684 55.3644 106.741 55.129L107.827 49.8988L111.306 33.089C111.928 30.1924 112.114 27.4042 111.854 24.759L111.856 24.7603ZM85.6186 25.5186C86.4031 24.7683 87.1215 23.7667 88.0033 23.1515C88.7061 22.6634 89.6125 22.4949 90.4372 22.6969C91.245 22.9068 91.9401 23.522 91.9725 24.4233C92.0373 26.3771 91.9725 27.0177 91.9725 27.0177H90.1766C88.2574 27.0257 86.3214 26.9669 84.4023 27.0097H84.3452C84.2389 27.0177 84.0833 27.0097 83.9614 27.0097C84.5657 26.6646 85.1129 26.008 85.6186 25.5186ZM80.3916 43.8449C80.6937 41.7306 82.1797 40.1219 84.0911 39.4064C85.4462 38.9009 89.0886 38.3112 89.807 40.1646C90.0197 40.6956 89.8239 41.3094 89.5788 41.8242C88.9991 43.0626 88.1174 44.1819 87.0476 45.0418C85.8468 46.0019 84.4023 46.6425 82.8748 46.7348C82.2705 46.7762 81.6416 46.6505 81.1683 46.2627C80.4901 45.7064 80.2697 44.7302 80.3929 43.8449H80.3916Z" fill="#F9EC00"/>
<path id="Shape_12" d="M66.3613 33.0449L62.6462 56.1294C62.6047 56.0625 62.5645 55.9863 62.523 55.91C61.1342 53.2996 60.4405 50.2426 60.4573 46.8311C60.4742 43.0238 61.4454 39.5709 63.3568 36.5821C64.1737 35.2849 65.1774 34.1054 66.3626 33.0449H66.3613Z" fill="#918A00"/>
<path id="Shape_13" d="M21.2373 67.0318C18.5 67.0318 16.0064 66.3123 13.8266 64.8934C11.5016 63.3796 9.79644 61.3095 8.75907 58.7392C7.74763 56.2384 7.49218 53.5023 7.99919 50.6098L14.462 14.7889C15.1039 11.6931 16.551 9.12144 18.7801 7.07403C21.0986 4.94104 24.0434 3.81504 27.5303 3.72544C27.6535 3.72277 27.7753 3.72009 27.8985 3.72009C30.0783 3.72009 32.1881 4.21757 34.1681 5.19781C34.8982 5.56021 35.5725 5.97611 36.1871 6.44283C36.7862 5.95605 37.4346 5.49335 38.1296 5.05873C40.793 3.39112 43.8494 2.50181 47.2131 2.41489C47.392 2.41088 47.5697 2.4082 47.7447 2.4082C52.1846 2.4082 56.0009 3.83109 59.087 6.63941C62.098 9.38087 64.1831 13.0103 65.2827 17.4274C66.3201 21.5877 66.429 25.9313 65.6069 30.3363L61.1397 55.2783C60.6029 58.3313 59.1532 60.9431 56.8321 63.0319C54.4837 65.1448 51.5363 66.2602 48.0689 66.3484C47.9288 66.3524 47.7888 66.3538 47.65 66.3538C44.8569 66.3538 42.3374 65.6356 40.1602 64.2181C37.8093 62.6882 36.1093 60.5913 35.1095 57.9836C34.9099 57.4647 34.7426 56.9365 34.6064 56.3989C33.9257 59.2835 32.5395 61.696 30.4725 63.639C28.1773 65.7948 25.204 66.9341 21.6328 67.0251C21.4993 67.0291 21.3657 67.0304 21.2321 67.0304L21.2373 67.0318Z" fill="black"/>
<path id="Shape_14" d="M48.0108 63.5878C45.5886 63.6494 43.4308 63.077 41.5973 61.8828C39.7365 60.6712 38.3931 59.017 37.606 56.9656C36.8397 54.969 36.6607 52.7678 37.0718 50.4222L40.9437 28.7753C41.1292 27.7937 41.1642 26.9446 41.0527 26.2318C40.9775 25.7664 40.8374 25.4307 40.6351 25.2435C40.4432 25.067 40.0555 25.0376 39.7637 25.0456C39.3177 25.0576 38.9676 25.1646 38.6589 25.3826C38.244 25.6768 37.8848 26.07 37.5632 26.5848C37.2663 27.0609 37.086 27.5931 37.016 28.211L37.0082 28.2832L32.0846 55.4571C31.5737 57.907 30.4326 59.9544 28.682 61.5993C26.877 63.295 24.4872 64.1923 21.5787 64.2672C19.2199 64.3274 17.0946 63.7537 15.2624 62.5595C13.412 61.3546 12.0569 59.7124 11.2361 57.6783C10.4256 55.6751 10.2246 53.4618 10.6396 51.1015L17.0998 15.2927C17.6107 12.8334 18.7739 10.7806 20.5685 9.1331C22.4008 7.4481 24.7686 6.55479 27.6058 6.48257C29.4886 6.43443 31.3105 6.83829 33.0208 7.6848C34.3305 8.33607 35.3899 9.18258 36.1887 10.2136C37.0666 9.19461 38.1831 8.2585 39.5277 7.41601C41.7879 6.00115 44.3995 5.24557 47.2899 5.17202C51.2604 5.07039 54.637 6.25924 57.3277 8.70783C59.9302 11.0762 61.7391 14.2416 62.7039 18.113C63.6414 21.8735 63.7386 25.8105 62.9917 29.8144L58.522 54.7751C58.0954 57.2023 56.94 59.2831 55.0857 60.952C53.2197 62.6303 50.8416 63.517 48.016 63.5892L48.0108 63.5878Z" fill="#F9EC00"/>
<path id="Shape_15" d="M62.9852 29.8144L60.5435 43.4749L58.5181 54.7684C58.0941 57.2023 56.9335 59.2831 55.0805 60.9507C53.2184 62.6263 50.8415 63.5116 48.016 63.5865C45.5912 63.6453 43.4347 63.073 41.5973 61.8855C39.7352 60.6725 38.3957 59.013 37.6034 56.9669C36.8435 54.9703 36.6646 52.7638 37.0731 50.4235L39.8493 34.8854L40.9437 28.7793C41.1318 27.7937 41.1642 26.9432 41.0501 26.2358C40.9762 25.7637 40.8374 25.4267 40.6338 25.2422C40.4458 25.0657 40.0542 25.0403 39.7689 25.0483C39.3203 25.0563 38.9688 25.166 38.6576 25.3853C38.2414 25.6795 37.89 26.0673 37.5632 26.5808C37.2689 27.0609 37.0899 27.5918 37.016 28.207L37.0082 28.2832L36.1757 32.8648L32.0846 55.4531C31.5698 57.9043 30.4352 59.9504 28.6794 61.6006C26.8744 63.2936 24.4898 64.195 21.5825 64.2618C19.2225 64.3287 17.0998 63.7483 15.2624 62.5608C13.4171 61.3559 12.0608 59.7137 11.2361 57.6757C10.4282 55.671 10.2233 53.4645 10.6396 51.0975L16.5357 18.4206L17.0998 15.2873C17.6146 12.8281 18.7739 10.782 20.5711 9.13043C22.4008 7.44543 24.7686 6.55346 27.6109 6.47723C29.4899 6.43444 31.3105 6.83964 33.026 7.68213C34.3331 8.33072 35.3938 9.18124 36.1861 10.2083C37.0679 9.18927 38.1869 8.2545 39.5264 7.412C41.7879 5.99714 44.4021 5.24825 47.2924 5.17203C51.2617 5.07039 54.6422 6.25791 57.329 8.70918C59.9341 11.0762 61.7391 14.2429 62.7026 18.1077C63.6414 21.8722 63.7399 25.8052 62.9878 29.8144H62.9852Z" fill="#F9EC00"/>
</g>
</svg>
