<svg preserveAspectRatio="none" overflow="visible" style="display: block;" width="25.8306" height="11.5471" viewBox="0 0 25.8306 11.5471" fill="none" xmlns="http://www.w3.org/2000/svg">
<g id="Group">
<g id="Vector">
</g>
<path id="Vector_2" d="M7.50393 3.16493L6.71519 3.9522L5.92788 3.16493H2.90244L1.96113 4.12275V3.16493H5.89038e-05V11.5471H2.20725V5.72822L2.77866 5.21801H5.01751V11.5471H7.22543V5.81314L7.81986 5.21801H9.9738V11.5471H12.181V4.5243L10.823 3.16493H7.50393Z" fill="#1F20B7"/>
<path id="Vector_3" d="M15.6026 4.9861H17.7385V6.71535H14.1568L12.7981 8.074V10.112L14.1568 11.4706H17.0592L18.0163 10.4984V11.4706H19.8687V4.44638L18.51 3.08774H14.2647L12.906 4.44638V5.80503H14.9901V5.59922L15.6026 4.9861ZM17.7385 9.24698L17.1829 9.72553H14.929V7.90416H17.7385V9.24698Z" fill="#1F20B7"/>
<path id="Vector_4" d="M20.6423 11.4695H22.2377L22.8495 10.8585V0.000185868H20.6423V11.4695Z" fill="#1F20B7"/>
<path id="Vector_5" d="M23.6219 11.5272H25.2181L25.8306 10.9162V0.0578699H23.6219V11.5272Z" fill="#1F20B7"/>
</g>
</svg>
